<svg width="428" height="389" viewBox="0 0 428 389" fill="none" xmlns="http://www.w3.org/2000/svg">
<path d="M35.6779 243.264C34.4372 242.873 29.6453 259.17 29.3673 260.227C23.6889 285.379 42.5356 310.777 68.7298 309.683C80.9932 309.169 92.9032 304.41 103.872 299.186C144.529 279.412 35.6779 243.264 35.6779 243.264Z" fill="#0B0817"/>
<path d="M194.96 287.269C194.96 287.269 185.394 352.226 210.177 355.434C234.959 358.643 298.445 355.849 298.445 355.849C298.445 355.849 323.673 378.411 350.089 368.214C376.602 358.025 389.592 339.426 382.777 307.71C375.962 275.994 378.221 218.214 355.554 204.188C332.886 190.161 290.15 170.155 290.15 170.155C290.15 170.155 221.28 168.018 213.775 177.729C206.277 187.343 194.96 287.269 194.96 287.269Z" fill="#0B0817"/>
<path d="M360.512 306.071C360.317 306.055 360.123 306.04 360.033 305.935L296.676 261.962C296.213 261.632 296.065 261.032 296.394 260.567C296.724 260.103 297.322 259.953 297.785 260.284L361.142 304.256C361.605 304.587 361.754 305.187 361.424 305.651C361.2 306.026 360.9 306.101 360.512 306.071Z" fill="white"/>
<path d="M298.369 356.824C298.174 356.809 297.89 356.689 297.711 356.478L240.78 299.082C240.422 298.662 240.37 298.069 240.797 297.612C241.216 297.253 241.807 297.201 242.263 297.628L299.194 355.025C299.552 355.445 299.604 356.038 299.177 356.495C298.96 356.772 298.66 356.847 298.369 356.824Z" fill="white"/>
<path d="M238.788 33.8596C238.788 33.8596 244.76 41.2881 269.535 39.5928C294.309 37.8976 323.717 38.2309 324.187 67.2945C324.187 67.2945 333.513 65.5706 338.212 91.8261C342.91 118.082 322.129 131.268 316.395 147.099C310.67 162.833 306.735 164.389 291.553 160.949C276.371 157.509 225.483 87.8353 225.483 87.8353C225.483 87.8353 208.485 77.5852 217.485 57.4978C223.754 43.5716 240.054 43.9609 240.054 43.9609C240.054 43.9609 236.742 37.5245 238.788 33.8596Z" fill="#0B0817"/>
<path d="M225.79 87.6631C225.79 87.6631 226.099 102.495 224.434 117.565C222.769 132.635 209.807 164.671 258.015 168.433L255.771 197.186C255.771 197.186 287.83 199.884 291.709 190.282C295.579 180.778 292.87 160.365 292.87 160.365C292.87 160.365 304.346 149.885 306.195 142.479C306.195 142.479 320.8 152.052 328.358 136.657C335.907 121.36 325.727 118.996 325.727 118.996C325.727 118.996 318.297 122.731 313.539 118.536L308.154 131.158C307.546 132.68 305.728 133.42 304.219 132.714C302.612 132 301.987 129.99 302.886 128.491C305.382 124.077 309.647 115.78 308.336 112.54C306.435 108.077 300.718 99.8837 304.036 89.9439C304.036 89.9439 286.454 80.9231 285.954 68.528C285.954 68.528 275.278 78.7762 259.042 75.0578C259.042 75.0578 251.565 86.9284 239.233 88.3198C229.758 89.4437 225.79 87.6631 225.79 87.6631Z" fill="white"/>
<path d="M255.979 198.281C255.882 198.274 255.688 198.259 255.591 198.251L254.619 198.175L256.862 169.421C241.61 168.133 231.387 163.805 225.699 156.497C218.242 146.795 220.637 133.645 222.37 123.974C222.746 121.65 223.221 119.333 223.365 117.481C225.015 102.606 224.705 87.7746 224.713 87.6771L224.648 86.005L226.157 86.7111C226.254 86.7187 230.133 88.3942 239.01 87.4198C250.653 86.0729 257.996 74.682 258.004 74.5845L258.349 73.925L259.021 74.0755C274.479 77.7333 284.923 67.9573 285.028 67.8674L286.615 66.3241L286.732 68.5887C287.195 80.1964 304.112 88.9692 304.299 89.0819L305.053 89.435L304.791 90.297C302.126 98.1303 305.504 104.964 307.794 109.458C308.301 110.478 308.718 111.393 309.046 112.203C310.202 114.941 308.295 120.578 303.528 129.032C303.296 129.504 303.153 130.081 303.399 130.689C303.555 131.191 303.914 131.612 304.482 131.852C304.953 132.085 305.543 132.033 306.044 131.876C306.546 131.719 306.972 131.262 307.108 130.782L313.078 116.931L314.078 117.891C318.291 121.554 325.099 118.261 325.204 118.171L325.511 117.999L325.892 118.127C326.087 118.142 329.54 119 331.218 122.563C332.895 126.126 332.216 131.074 329.194 137.213C326.87 141.934 323.606 144.916 319.604 146.075C314.212 147.517 309.003 145.345 306.754 144.091C304.277 150.762 295.81 159.026 293.908 160.838C294.33 164.206 296.184 181.806 292.553 190.74C288.667 200.44 260.645 198.645 255.979 198.281ZM226.76 89.0136C226.829 93.1377 226.761 105.292 225.406 117.641C225.157 119.583 224.78 121.907 224.298 124.321C222.558 134.089 220.344 146.175 227.263 155.246C232.586 162.232 242.929 166.275 257.994 167.45L258.966 167.526L256.722 196.28C266.06 196.91 287.767 196.937 290.565 189.899C294.316 180.679 291.673 160.664 291.688 160.469L291.629 159.974L292.048 159.615C292.153 159.525 303.315 149.314 305.134 142.298L305.434 140.948L306.645 141.729C306.742 141.737 312.883 145.746 318.979 144.064C322.472 143.16 325.22 140.531 327.311 136.281C329.988 130.802 330.719 126.446 329.287 123.491C328.281 121.353 326.39 120.519 325.628 120.263C324.109 120.929 318.356 123.226 313.791 120.32L308.894 131.706C308.429 132.65 307.68 133.474 306.67 133.886C305.66 134.297 304.591 134.214 303.544 133.838C302.506 133.365 301.692 132.517 301.387 131.414C301.082 130.312 301.173 129.142 301.735 128.205C305.932 120.786 308.033 115.164 307.116 113.131C306.78 112.419 306.363 111.503 305.856 110.483C303.581 105.795 300.114 98.8559 302.517 90.6099C301.015 89.8063 297.653 87.7788 294.262 84.8665C288.944 80.3329 285.706 75.4712 284.897 70.7991C281.364 73.4653 272.115 79.2158 259.228 76.4452C257.467 78.9555 250.277 88.397 239.134 89.5869C232.83 90.1737 228.77 89.5628 226.76 89.0136Z" fill="black"/>
<path d="M279.066 97.9001C278.678 97.8697 278.304 97.6445 278.237 97.247C274.504 87.4435 265.647 90.675 265.25 90.7421C264.749 90.8991 264.181 90.6587 263.928 90.1486C263.771 89.646 264.011 89.0764 264.52 88.8219C264.722 88.7396 269.256 87.034 273.694 89.0474C276.527 90.3471 278.677 92.8684 280.063 96.4088C280.219 96.9113 279.979 97.481 279.47 97.7355C279.358 97.9228 279.261 97.9152 279.066 97.9001Z" fill="#231F20"/>
<path d="M230.059 93.0956C229.962 93.088 229.865 93.0804 229.775 92.9754C229.305 92.7425 229.059 92.1349 229.194 91.6552C229.201 91.5577 230.619 88.4322 233.813 87.6027C236.401 87.0201 239.353 88.0349 242.564 90.7371C243.028 91.0675 243.071 91.7573 242.645 92.2144C242.315 92.679 241.627 92.7233 241.172 92.2955C238.513 90.0287 236.136 89.1569 234.244 89.5976C232.052 90.113 230.995 92.3841 230.987 92.4815C230.852 92.9613 230.448 93.1259 230.059 93.0956Z" fill="#231F20"/>
<path d="M253.786 148.686C252.426 148.58 251.275 148.294 250.423 147.933C247.575 146.828 246.165 144.855 246.075 144.75C245.717 144.33 245.867 143.655 246.286 143.296C246.705 142.936 247.378 143.087 247.737 143.507C247.908 143.814 252.424 149.854 262.525 144.465C263.034 144.21 263.61 144.353 263.863 144.863C264.117 145.373 263.974 145.951 263.465 146.205C259.477 148.443 256.313 148.883 253.786 148.686Z" fill="#231F20"/>
<path d="M312.134 135.293L312.037 135.285C311.461 135.142 311.11 134.625 311.246 134.145C313.294 122.929 325.788 123.218 325.885 123.225C326.469 123.271 326.924 123.699 326.879 124.283C326.833 124.868 326.406 125.325 325.823 125.28C325.823 125.28 322.989 125.255 320.064 126.399C316.234 127.866 313.964 130.631 313.167 134.589C313.136 134.979 312.62 135.331 312.134 135.293Z" fill="#231F20"/>
<path d="M259.486 169.626C258.903 169.581 258.417 169.543 257.834 169.497C257.251 169.452 256.9 168.934 256.946 168.349C256.991 167.764 257.508 167.412 258.091 167.458C276.617 169.394 287.41 161.41 287.515 161.32C287.934 160.961 288.614 161.014 288.965 161.531C289.323 161.952 289.27 162.634 288.754 162.986C288.245 163.24 277.953 171.067 259.486 169.626Z" fill="#231F20"/>
<path d="M272.388 229.863C271.445 241.95 268.499 253.389 263.953 264.018C246.276 305.1 204.158 332.312 157.213 328.649C98.3209 323.956 54.2432 272.269 58.852 213.202C61.6204 177.722 81.2803 147.582 109.335 130.158C128.036 118.575 150.409 112.573 173.93 114.409C174.221 114.431 174.513 114.454 174.804 114.477C175.096 114.5 175.387 114.522 175.582 114.538C233.822 120.063 276.959 171.284 272.388 229.863Z" fill="#DA1C5C"/>
<path d="M175.679 114.545L165.668 221.536L109.335 130.158C128.036 118.575 150.409 112.573 173.93 114.409C174.513 114.454 175.096 114.5 175.679 114.545Z" fill="black"/>
<path d="M272.388 229.863C271.445 241.95 268.499 253.389 263.953 264.018L165.571 221.529L174.797 114.574C175.088 114.597 175.38 114.62 175.574 114.635C233.822 120.063 276.959 171.284 272.388 229.863Z" fill="#00B49C"/>
<path d="M273.553 191.121C267.891 192.248 262.381 197.702 266.897 208.743C271.414 219.785 282.351 238.78 282.351 238.78C282.351 238.78 242.773 210.882 239.152 212.168C235.532 213.455 230.505 220.221 234.133 225.113C234.133 225.113 224.247 231.501 233.394 240.844C233.394 240.844 226.618 242.473 234.134 252.669C241.65 262.866 255.643 277.785 255.643 277.785C255.643 277.785 243.191 297.014 241.417 298.445C239.643 299.876 264.616 305.649 278.891 288.13C293.166 270.612 305.033 252.612 304.183 239.699C303.437 226.696 273.553 191.121 273.553 191.121Z" fill="white"/>
<path d="M248.232 301.33C246.483 301.194 244.935 300.975 243.59 300.674C240.898 300.072 240.466 299.351 240.317 298.751C240.258 298.256 240.385 297.874 240.707 297.507C241.853 296.616 249.397 285.143 254.275 277.776C251.564 274.917 239.849 262.137 233.214 253.186C230.034 248.819 228.842 245.294 229.728 242.715C230.111 241.568 230.852 240.842 231.571 240.407C229.152 237.571 228.101 234.743 228.426 231.827C228.805 228.228 231.343 225.778 232.698 224.707C231.668 222.862 231.544 220.694 232.213 218.393C233.249 215.14 236.042 211.925 238.75 211.058C239.655 210.736 241.465 210.093 262.578 223.999C268.995 228.226 275.397 232.648 279.2 235.298C275.768 229.146 269.189 216.963 265.895 209.057C263.189 202.374 264.115 198.033 265.479 195.59C266.971 192.765 269.867 190.735 273.248 190.018L273.846 189.869L274.204 190.289C275.459 191.76 304.245 226.367 305.081 239.475C305.866 250.715 297.47 266.829 279.541 288.573C270.531 300.03 256.98 302.013 248.232 301.33ZM242.89 298.364C244.601 298.988 249.034 299.824 254.942 299.304C261.642 298.65 271.127 296.154 278.256 287.492C295.766 266.108 304.027 250.474 303.293 239.826C302.538 228.195 276.746 196.567 273.267 192.275C270.672 192.955 268.598 194.461 267.452 196.627C265.847 199.64 266.022 203.674 268.004 208.339C272.439 219.178 283.286 238.068 283.368 238.271L285.696 242.277L281.991 239.634C263.173 226.398 242.224 212.898 239.659 213.188C237.849 213.832 235.311 216.281 234.395 219.25C233.997 220.592 233.732 222.728 235.15 224.604L235.77 225.437L234.842 226.051C234.842 226.051 231.13 228.507 230.736 232.301C230.441 234.828 231.604 237.468 234.322 240.23L235.592 241.506L233.894 241.962C233.894 241.962 232.495 242.343 232.097 243.685C231.602 245.019 231.801 247.486 235.249 252.168C242.683 262.162 256.586 276.976 256.668 277.178L257.213 277.711L256.771 278.363C254.592 281.233 245.915 294.677 242.89 298.364Z" fill="black"/>
<path d="M49.2481 187.152C49.2481 187.152 39.5389 190.023 35.7721 205.713C32.0054 221.404 13.4843 278.307 76.8549 283.251C76.8549 283.251 68.239 262.084 67.8087 253.813C67.8087 253.813 91.9847 252.267 97.7485 236.046C97.7485 236.046 109.493 232.157 105.064 222.495C105.064 222.495 111.678 219.187 108.281 210.096C103.594 208.75 48.3085 207.966 48.3085 207.966C48.3085 207.966 53.169 202.069 65.1619 202.515C77.1548 202.96 95.9742 203.644 98.7099 198.66C101.348 193.669 98.6912 190.127 95.2455 189.172C91.5157 188.096 59.2387 180.675 49.2481 187.152Z" fill="white"/>
<path d="M78.4236 284.452L76.7713 284.323C58.0128 282.86 44.7039 276.722 37.0313 266.023C24.0747 247.85 30.8315 221.41 33.9737 208.711C34.2593 207.556 34.545 206.402 34.8078 205.54C38.4393 190.329 47.4242 186.715 48.823 186.334C60.0332 179.266 94.9327 188.167 95.3215 188.197C97.519 188.859 99.2668 190.27 100.094 192.198C100.668 193.616 101.069 196 99.4571 199.111C96.8185 204.102 82.8361 204.09 66.2522 203.58L65.0783 203.587C57.8555 203.416 53.2916 205.511 51.0164 207.099C62.3442 207.296 104.433 208.031 108.641 209.241L109.119 209.377L109.275 209.879C112.189 217.658 108.161 221.658 106.394 222.991C107.363 225.617 107.375 227.971 106.415 230.25C104.63 234.327 100.066 236.423 98.6521 236.999C96.071 243.76 89.9926 248.973 81.0381 252.197C75.8091 254.045 71.0601 254.753 68.9886 254.983C69.9793 263.592 77.8573 282.937 77.9393 283.14L78.4236 284.452ZM49.5608 188.157C49.4636 188.149 40.3376 191.066 36.8261 205.992C36.5556 206.951 36.3748 208.016 35.9919 209.163C32.8726 221.569 26.2586 247.433 38.6929 264.779C45.7459 274.646 58.0009 280.505 75.2787 282.148C73.2291 277.084 67.1488 261.018 66.7244 253.924L66.7033 252.942L67.6828 252.92C67.8772 252.935 91.186 251.224 96.6946 235.767L96.8299 235.287L97.331 235.13C97.4282 235.138 102.657 233.291 104.435 229.311C105.267 227.414 105.143 225.247 104.054 222.907L103.637 221.992L104.549 221.572C104.751 221.49 110.057 218.668 107.427 211.01C101.544 209.963 62.9773 209.209 48.1277 209.031L45.9818 208.961L47.3822 207.305C47.5994 207.028 52.6619 201.049 65.0512 201.427L66.2251 201.421C76.3714 201.722 95.2955 202.316 97.5892 197.984C98.6161 196.103 98.8578 194.259 98.1867 192.834C97.6052 191.513 96.3205 190.433 94.691 190.011C90.2886 188.785 59.0427 181.934 49.7704 187.977L49.6656 188.067L49.5608 188.157Z" fill="black"/>
<path d="M273.288 273.474C273.093 273.459 272.906 273.346 272.72 273.233L232.653 241.571C232.19 241.24 232.146 240.55 232.468 240.183C232.798 239.719 233.486 239.674 233.852 239.997L273.918 271.66C274.381 271.99 274.425 272.68 274.103 273.047C273.983 273.332 273.676 273.504 273.288 273.474Z" fill="black"/>
<path d="M284.64 260.827C284.445 260.812 284.251 260.797 284.161 260.691L233.586 225.855C233.123 225.525 232.974 224.925 233.304 224.46C233.633 223.996 234.232 223.846 234.695 224.176L285.27 259.013C285.733 259.343 285.882 259.943 285.552 260.408C285.328 260.782 285.028 260.857 284.64 260.827Z" fill="black"/>
<path d="M292.62 247.524C292.426 247.509 292.232 247.494 292.15 247.292L279.555 238.268C279.092 237.937 279.04 237.345 279.273 236.873C279.602 236.408 280.201 236.259 280.664 236.589L293.258 245.613C293.722 245.943 293.773 246.536 293.541 247.008C293.316 247.383 293.009 247.555 292.62 247.524Z" fill="black"/>
<path d="M261.026 283.991C260.832 283.975 260.548 283.855 260.368 283.645L251.759 274.932C251.4 274.512 251.349 273.919 251.776 273.462C252.195 273.103 252.785 273.051 253.241 273.479L261.851 282.192C262.209 282.612 262.261 283.204 261.834 283.661C261.617 283.939 261.318 284.013 261.026 283.991Z" fill="black"/>
<path d="M44.2122 224.121C43.7262 224.083 43.2707 223.656 43.3087 223.168C43.2572 222.576 43.7811 222.126 44.2671 222.164L104.946 221.505C105.537 221.453 105.985 221.979 105.947 222.466C105.998 223.058 105.474 223.508 104.988 223.47L44.2122 224.121Z" fill="#231F20"/>
<path d="M47.8762 241.078C47.3902 241.04 47.0319 240.62 46.9727 240.125C46.9211 239.533 47.3479 239.076 47.9387 239.024L97.735 234.966C98.3258 234.914 98.7813 235.342 98.8329 235.934C98.8845 236.527 98.4577 236.984 97.8669 237.035L48.0706 241.093C47.9734 241.086 47.8762 241.078 47.8762 241.078Z" fill="#231F20"/>
<path d="M52.6203 255.471C52.1343 255.433 51.6788 255.006 51.7168 254.518C51.6652 253.926 52.092 253.469 52.6828 253.417L67.698 252.725C68.2888 252.673 68.7443 253.101 68.7959 253.693C68.8475 254.286 68.4207 254.743 67.8299 254.795L52.8147 255.487C52.7175 255.479 52.7175 255.479 52.6203 255.471Z" fill="#231F20"/>
<path d="M231.809 115.787C234.01 115.959 235.971 113.828 236.19 111.029C236.408 108.23 234.801 105.822 232.6 105.65C230.399 105.478 228.438 107.608 228.22 110.407C228.001 113.207 229.608 115.615 231.809 115.787Z" fill="#0B0817"/>
<path d="M269.845 122.089C272.046 122.261 274.007 120.131 274.225 117.331C274.444 114.532 272.837 112.124 270.636 111.952C268.435 111.78 266.474 113.91 266.256 116.709C266.037 119.509 267.644 121.917 269.845 122.089Z" fill="#0B0817"/>
<path d="M231.688 128.624C230.91 128.563 230.035 128.495 228.974 128.314C228.488 128.276 228.099 128.246 227.807 128.223C225.183 128.018 223.052 127.754 221.034 127.302C217.289 126.422 214.644 125.234 212.635 123.411C206.959 118.457 206.621 107.742 208.446 101.902C209.362 98.9335 211.572 95.6737 214.585 95.9088C216.918 96.0908 242.808 98.8954 243.877 98.9789L244.946 99.0623L241.745 122.544L241.528 122.821L236.728 127.938C236.181 128.68 234.895 128.874 231.688 128.624ZM228.057 126.281C228.348 126.304 228.737 126.334 229.223 126.372C230.584 126.478 234.554 126.984 235.369 126.557L239.854 121.71L242.648 100.942C237.699 100.458 216.467 98.1149 214.426 97.9557C212.676 97.8192 211.087 100.637 210.449 102.549C208.52 108.478 209.449 117.867 214.028 121.852C215.858 123.466 218.219 124.533 221.583 125.286C223.496 125.827 225.53 126.084 228.057 126.281Z" fill="#5F4EC6"/>
<path d="M276.579 136.049C275.801 135.988 275.121 135.935 274.44 135.882C273.663 135.821 272.982 135.768 272.302 135.715C267.734 135.359 263.375 134.823 259.977 132.008C257.131 129.628 255.177 125.848 254.033 120.463C253.817 119.465 253.42 114.531 253.253 110.399C252.794 101.244 253.116 100.877 253.438 100.509L253.76 100.142L254.246 100.18C254.441 100.195 256.773 100.377 288.129 103.314C292.204 103.73 299.819 106.384 299.003 113.087C298.126 120.569 291.137 129.928 284.805 134.632C282.441 136.114 279.494 136.276 276.579 136.049ZM272.664 133.586C273.247 133.632 273.927 133.685 274.608 133.738C277.71 134.078 281.299 134.456 283.589 132.673C289.607 128.24 296.161 119.435 296.992 112.537C297.295 109.913 295.884 107.94 292.963 106.535C290.512 105.363 287.992 105.069 287.895 105.061L254.984 102.003C254.815 105.422 255.673 118.237 255.94 119.827C257.026 124.717 258.808 128.19 261.288 130.247C264.223 132.731 268.193 133.237 272.38 133.466C272.567 133.579 272.567 133.579 272.664 133.586Z" fill="#5F4EC6"/>
<path d="M254.261 99.9713L243.47 99.1577L243.316 101.205L254.106 102.019L254.261 99.9713Z" fill="#5F4EC6"/>
<path d="M298.402 114.167L298.026 116.186L317.48 119.818L317.856 117.799L298.402 114.167Z" fill="#5F4EC6"/>
<path d="M247.589 107.8C247.589 107.8 248.714 110.928 246.319 112.8C243.924 114.673 228.874 124.58 243.106 133.928" fill="white"/>
<path d="M243.03 134.902C242.835 134.887 242.738 134.879 242.551 134.767C238.368 131.989 236.166 128.875 236.043 125.433C235.842 119.24 242.683 114.282 245.175 112.417C245.385 112.237 245.587 112.155 245.692 112.065C247.458 110.732 246.669 108.317 246.676 108.219C246.52 107.717 246.76 107.147 247.269 106.892C247.77 106.735 248.338 106.976 248.591 107.486C248.673 107.689 249.955 111.319 246.938 113.633C246.834 113.723 246.624 113.903 246.414 114.083C244.132 115.768 238.009 120.291 238.1 125.398C238.186 128.052 240.037 130.648 243.66 133.088C244.123 133.419 244.272 134.018 243.943 134.483C243.725 134.76 243.321 134.925 243.03 134.902Z" fill="#231F20"/>
</svg>
